<?xml version="1.0" standalone="no"?>
<!DOCTYPE svg PUBLIC "-//W3C//DTD SVG 20010904//EN"
 "http://www.w3.org/TR/2001/REC-SVG-20010904/DTD/svg10.dtd">
<svg version="1.0" xmlns="http://www.w3.org/2000/svg"
 width="134.000000pt" height="134.000000pt" viewBox="0 0 134.000000 134.000000"
 preserveAspectRatio="xMidYMid meet">
<metadata>
Created by potrace 1.11, written by Peter Selinger 2001-2013
</metadata>
<g transform="translate(0.000000,134.000000) scale(0.100000,-0.100000)"
fill="#000000" stroke="none">
<path d="M220 1132 c0 -35 106 -404 126 -439 30 -53 79 -90 140 -109 53 -16
140 -19 148 -5 4 5 2 85 -3 179 -10 192 -27 249 -89 304 -59 52 -116 71 -224
76 -67 3 -98 1 -98 -6z"/>
<path d="M811 1074 c-90 -45 -121 -114 -136 -298 l-6 -79 52 6 c105 13 208 87
258 186 25 47 51 143 51 183 l0 28 -83 0 c-70 0 -92 -4 -136 -26z"/>
<path d="M911 689 c-116 -20 -191 -76 -217 -165 -11 -37 -14 -91 -12 -200 l3
-149 28 -3 c92 -11 213 70 237 157 24 89 77 360 72 366 -7 7 -44 5 -111 -6z"/>
<path d="M320 526 c0 -30 9 -84 21 -122 18 -57 31 -77 82 -129 46 -45 78 -68
121 -84 33 -12 66 -20 75 -19 20 4 28 43 30 133 1 87 -29 159 -84 201 -32 24
-185 73 -232 74 -9 0 -13 -17 -13 -54z"/>
</g>
</svg>
